<svg xmlns="http://www.w3.org/2000/svg" viewBox="0 0 800 100" enable-background="new 0 0 800 100">
    <path fill="#fd918f" d="M157.8.9l-58.8 98.2h117.7z" />
    <path fill="#f26563" d="M58.9.9l-58.9 98.2h117.8z" />
    <path fill="#282a36" d="M312.6 71.3h-24.5l-4.6 13.9h-14.8l25.2-67.7h12.9l25.3 67.7h-14.8l-4.7-13.9zm-20.7-11.3h16.9l-8.5-25.3-8.4 25.3zM365.8 47.5c-1.8-.2-3.4-.4-4.8-.4-5.1 0-8.4 1.7-10 5.2v32.9h-13.4v-50.3h12.7l.4 6c2.7-4.6 6.4-6.9 11.2-6.9 1.5 0 2.9.2 4.2.6l-.3 12.9zM390.7 22.6v12.4h8.6v9.9h-8.6v25.1c0 1.9.4 3.2 1.1 4 .7.8 2.1 1.2 4.1 1.2 1.5 0 2.8-.1 4-.3v10.1c-2.6.8-5.3 1.2-8.1 1.2-9.4 0-14.2-4.8-14.4-14.3v-27.1h-7.3v-9.9h7.3v-12.3h13.3zM406.7 21.9c0-2 .7-3.7 2-5 1.4-1.3 3.2-2 5.5-2s4.1.7 5.5 2c1.4 1.3 2 3 2 5s-.7 3.7-2.1 5c-1.4 1.3-3.2 2-5.5 2s-4.1-.7-5.5-2c-1.2-1.3-1.9-2.9-1.9-5zm14.3 63.3h-13.5v-50.3h13.5v50.3zM459.3 71.3c0-1.6-.8-2.9-2.4-3.9-1.6-.9-4.2-1.8-7.8-2.5-12-2.5-17.9-7.6-17.9-15.2 0-4.5 1.9-8.2 5.6-11.2 3.7-3 8.5-4.5 14.5-4.5 6.4 0 11.5 1.5 15.3 4.5 3.8 3 5.7 6.9 5.7 11.7h-13.4c0-1.9-.6-3.5-1.9-4.8-1.2-1.3-3.2-1.9-5.8-1.9-2.3 0-4 .5-5.3 1.5-1.2 1-1.9 2.3-1.9 3.9 0 1.5.7 2.7 2.1 3.6 1.4.9 3.8 1.7 7.1 2.4s6.2 1.4 8.5 2.3c7.1 2.6 10.6 7.1 10.6 13.5 0 4.6-2 8.3-5.9 11.1-3.9 2.8-9 4.3-15.2 4.3-4.2 0-8-.8-11.2-2.3-3.3-1.5-5.8-3.6-7.7-6.2-1.9-2.6-2.8-5.4-2.8-8.5h12.7c.1 2.4 1 4.2 2.7 5.5 1.6 1.3 3.8 1.9 6.6 1.9 2.6 0 4.5-.5 5.8-1.5 1.3-.8 2-2.1 2-3.7zM510.1 85.2c-.6-1.2-1.1-2.7-1.3-4.5-3.3 3.6-7.5 5.4-12.7 5.4-4.9 0-9-1.4-12.3-4.3-3.2-2.9-4.9-6.4-4.9-10.8 0-5.3 2-9.4 5.9-12.3 3.9-2.9 9.7-4.3 17.1-4.3h6.2v-2.9c0-2.3-.6-4.2-1.8-5.6-1.2-1.4-3.1-2.1-5.6-2.1-2.3 0-4 .5-5.3 1.6-1.3 1.1-1.9 2.6-1.9 4.5h-13.4c0-2.9.9-5.6 2.7-8.1 1.8-2.5 4.3-4.4 7.6-5.8 3.3-1.4 7-2.1 11.1-2.1 6.2 0 11.1 1.6 14.8 4.7 3.6 3.1 5.5 7.5 5.5 13.1v21.8c0 4.8.7 8.4 2 10.8v.8h-13.7zm-11.1-9.3c2 0 3.8-.4 5.5-1.3 1.7-.9 2.9-2.1 3.7-3.6v-8.6h-5c-6.7 0-10.3 2.3-10.7 7v.8c0 1.7.6 3.1 1.8 4.1 1.1 1.1 2.7 1.6 4.7 1.6zM544.4 34.9l.4 5.8c3.6-4.5 8.4-6.7 14.5-6.7 5.3 0 9.3 1.6 11.9 4.7 2.6 3.1 3.9 7.8 4 14v32.5h-13.4v-32.1c0-2.9-.6-4.9-1.9-6.2-1.2-1.3-3.3-1.9-6.2-1.9-3.8 0-6.6 1.6-8.5 4.8v35.5h-13.4v-50.4h12.6zM649 66.2h-30.7l-7 19h-6l25.6-67.7h5.4l25.7 67.7h-6l-7-19zm-29-4.8h27.2l-13.6-36.9-13.6 36.9zM676.8 85.2h-5.6v-71.4h5.6v71.4zM691.6 20.4c0-1 .3-1.9 1-2.7.7-.7 1.6-1.1 2.8-1.1 1.2 0 2.1.4 2.8 1.1.7.7 1 1.6 1 2.7s-.3 1.9-1 2.6c-.7.7-1.6 1.1-2.8 1.1-1.2 0-2.1-.4-2.8-1.1-.6-.7-1-1.5-1-2.6zm6.6 64.8h-5.6v-50.3h5.6v50.3zM745 85.2c-.6-1.6-.9-3.9-1.1-7-2 2.5-4.4 4.5-7.5 5.9-3 1.4-6.2 2.1-9.6 2.1-4.8 0-8.7-1.3-11.7-4s-4.5-6.1-4.5-10.2c0-4.9 2-8.8 6.1-11.6 4.1-2.9 9.8-4.3 17-4.3h10.1v-5.7c0-3.6-1.1-6.4-3.3-8.5-2.2-2.1-5.4-3.1-9.7-3.1-3.9 0-7.1 1-9.6 3s-3.8 4.4-3.8 7.2h-5.6c0-4 1.9-7.5 5.6-10.4 3.7-2.9 8.3-4.4 13.7-4.4 5.6 0 10 1.4 13.3 4.2 3.2 2.8 4.9 6.7 5 11.7v23.8c0 4.9.5 8.5 1.5 10.9v.6h-5.9zm-17.4-4c3.7 0 7-.9 10-2.7 2.9-1.8 5.1-4.2 6.4-7.2v-11h-10c-5.5.1-9.9 1.1-13 3-3.1 2-4.7 4.7-4.7 8.1 0 2.8 1 5.2 3.1 7 2.1 1.9 4.8 2.8 8.2 2.8zM794.4 72.5c0-2.8-1.1-5-3.3-6.6-2.2-1.7-5.6-3-10-3.9-4.5-.9-7.9-2-10.4-3.3-2.5-1.2-4.3-2.7-5.5-4.5-1.2-1.8-1.8-3.9-1.8-6.4 0-4 1.7-7.2 5-9.8 3.3-2.6 7.6-3.9 12.7-3.9 5.6 0 10.1 1.4 13.5 4.2 3.4 2.8 5.1 6.4 5.1 10.9h-5.6c0-2.9-1.2-5.4-3.7-7.3-2.5-2-5.6-2.9-9.3-2.9-3.7 0-6.6.8-8.8 2.4-2.2 1.6-3.3 3.7-3.3 6.3 0 2.5.9 4.5 2.8 5.8 1.8 1.4 5.2 2.6 10.1 3.8 4.9 1.1 8.5 2.4 11 3.7 2.4 1.3 4.2 2.9 5.4 4.7 1.2 1.8 1.8 4 1.8 6.6 0 4.2-1.7 7.6-5.1 10.2-3.4 2.5-7.9 3.8-13.4 3.8-5.9 0-10.6-1.4-14.3-4.3-3.6-2.8-5.5-6.4-5.5-10.8h5.6c.2 3.3 1.6 5.8 4.1 7.6 2.5 1.8 5.9 2.7 10 2.7 3.9 0 7-.9 9.4-2.6 2.3-1.7 3.5-3.8 3.5-6.4z" />
</svg>